<svg xmlns="http://www.w3.org/2000/svg" xmlns:xlink="http://www.w3.org/1999/xlink" width="200" zoomAndPan="magnify" viewBox="0 0 150 149.999998" height="200" preserveAspectRatio="xMidYMid meet" version="1.0"><defs><g/><clipPath id="ca5e30c1d3"><path d="M 63.890625 63.332031 L 139.230469 63.332031 L 139.230469 86.578125 L 63.890625 86.578125 Z M 63.890625 63.332031 " clip-rule="nonzero"/></clipPath><clipPath id="c4ba976250"><path d="M 78.890625 63.421875 L 137.953125 63.421875 C 138.382812 63.421875 138.78125 63.652344 138.996094 64.027344 C 139.207031 64.402344 139.203125 64.859375 138.984375 65.230469 L 127.414062 84.769531 C 126.75 85.890625 125.546875 86.578125 124.242188 86.578125 L 65.179688 86.578125 C 64.75 86.578125 64.351562 86.347656 64.136719 85.972656 C 63.925781 85.597656 63.929688 85.140625 64.148438 84.769531 L 75.71875 65.230469 C 76.382812 64.109375 77.585938 63.421875 78.890625 63.421875 Z M 78.890625 63.421875 " clip-rule="nonzero"/></clipPath></defs><g fill="#195088" fill-opacity="1"><g transform="translate(12.126625, 82.300593)"><g><path d="M 16.71875 0 L 13.140625 0 L 10.609375 -9.4375 L 8.03125 0 L 4.453125 0 L -0.015625 -13.65625 L 3.6875 -13.65625 L 6.359375 -3.609375 L 8.96875 -13.65625 L 12.359375 -13.65625 L 15.03125 -3.609375 L 17.671875 -13.65625 L 21.21875 -13.65625 Z M 16.71875 0 "/></g></g></g><g fill="#195088" fill-opacity="1"><g transform="translate(32.088409, 82.300593)"><g><path d="M 6.0625 -10.671875 C 7.507812 -10.671875 8.628906 -10.332031 9.421875 -9.65625 C 10.222656 -8.988281 10.628906 -8.054688 10.640625 -6.859375 L 10.640625 0 L 7.34375 0 L 7.34375 -1.203125 C 6.65625 -0.296875 5.585938 0.15625 4.140625 0.15625 C 3.023438 0.15625 2.144531 -0.144531 1.5 -0.75 C 0.851562 -1.363281 0.53125 -2.160156 0.53125 -3.140625 C 0.53125 -4.140625 0.875 -4.914062 1.5625 -5.46875 C 2.257812 -6.019531 3.257812 -6.300781 4.5625 -6.3125 L 7.328125 -6.3125 L 7.328125 -6.46875 C 7.328125 -6.988281 7.15625 -7.394531 6.8125 -7.6875 C 6.46875 -7.976562 5.957031 -8.125 5.28125 -8.125 C 4.332031 -8.125 3.285156 -7.832031 2.140625 -7.25 L 1.1875 -9.484375 C 2.894531 -10.273438 4.519531 -10.671875 6.0625 -10.671875 Z M 5.171875 -2.125 C 5.703125 -2.125 6.164062 -2.253906 6.5625 -2.515625 C 6.96875 -2.785156 7.222656 -3.132812 7.328125 -3.5625 L 7.328125 -4.5 L 5.203125 -4.5 C 4.191406 -4.5 3.6875 -4.125 3.6875 -3.375 C 3.6875 -2.976562 3.816406 -2.671875 4.078125 -2.453125 C 4.335938 -2.234375 4.703125 -2.125 5.171875 -2.125 Z M 5.171875 -2.125 "/></g></g></g><g fill="#195088" fill-opacity="1"><g transform="translate(42.673472, 82.300593)"><g><path d="M 7.46875 -2.90625 L 8.125 -0.5625 C 7.3125 -0.0820312 6.378906 0.15625 5.328125 0.15625 C 4.285156 0.15625 3.441406 -0.128906 2.796875 -0.703125 C 2.148438 -1.285156 1.828125 -2.109375 1.828125 -3.171875 L 1.828125 -7.8125 L 0.375 -7.8125 L 0.375 -10.015625 L 1.828125 -10.015625 L 1.828125 -12.953125 L 5.1875 -12.953125 L 5.1875 -10.046875 L 7.9375 -10.046875 L 7.9375 -7.8125 L 5.1875 -7.8125 L 5.1875 -3.703125 C 5.1875 -3.296875 5.265625 -3 5.421875 -2.8125 C 5.585938 -2.625 5.832031 -2.535156 6.15625 -2.546875 C 6.46875 -2.546875 6.90625 -2.664062 7.46875 -2.90625 Z M 7.46875 -2.90625 "/></g></g></g><g fill="#195088" fill-opacity="1"><g transform="translate(50.041986, 82.300593)"><g><path d="M 5.921875 -10.625 C 6.960938 -10.625 7.890625 -10.421875 8.703125 -10.015625 C 9.515625 -9.609375 10.148438 -9.023438 10.609375 -8.265625 L 8.1875 -6.8125 C 7.664062 -7.53125 6.957031 -7.890625 6.0625 -7.890625 C 5.414062 -7.890625 4.882812 -7.644531 4.46875 -7.15625 C 4.0625 -6.675781 3.859375 -6.039062 3.859375 -5.25 C 3.859375 -4.4375 4.054688 -3.785156 4.453125 -3.296875 C 4.859375 -2.816406 5.394531 -2.578125 6.0625 -2.578125 C 7.050781 -2.578125 7.765625 -2.972656 8.203125 -3.765625 L 10.671875 -2.328125 C 10.234375 -1.546875 9.601562 -0.941406 8.78125 -0.515625 C 7.957031 -0.0976562 6.992188 0.109375 5.890625 0.109375 C 4.265625 0.109375 2.953125 -0.378906 1.953125 -1.359375 C 0.960938 -2.335938 0.46875 -3.625 0.46875 -5.21875 C 0.46875 -6.832031 0.96875 -8.132812 1.96875 -9.125 C 2.976562 -10.125 4.296875 -10.625 5.921875 -10.625 Z M 5.921875 -10.625 "/></g></g></g><g fill="#195088" fill-opacity="1"><g transform="translate(59.886254, 82.300593)"><g><path d="M 8.34375 -10.671875 C 9.5 -10.671875 10.425781 -10.300781 11.125 -9.5625 C 11.832031 -8.832031 12.1875 -7.851562 12.1875 -6.625 L 12.1875 0 L 8.8125 0 L 8.8125 -5.6875 C 8.8125 -6.300781 8.644531 -6.785156 8.3125 -7.140625 C 7.976562 -7.503906 7.53125 -7.6875 6.96875 -7.6875 C 6.3125 -7.6875 5.785156 -7.453125 5.390625 -6.984375 C 5.003906 -6.515625 4.8125 -5.914062 4.8125 -5.1875 L 4.8125 0 L 1.4375 0 L 1.4375 -14.46875 L 4.8125 -14.46875 L 4.8125 -8.78125 C 5.550781 -10.007812 6.726562 -10.640625 8.34375 -10.671875 Z M 8.34375 -10.671875 "/></g></g></g><g clip-path="url(#ca5e30c1d3)"><g clip-path="url(#c4ba976250)"><path fill="#000000" d="M 63.078125 63.421875 L 140.042969 63.421875 L 140.042969 86.578125 L 63.078125 86.578125 Z M 63.078125 63.421875 " fill-opacity="1" fill-rule="nonzero"/></g></g><g fill="#6662f7" fill-opacity="1"><g transform="translate(79.531271, 82.300593)"><g><path d="M 7.84375 -13.765625 C 9.957031 -13.765625 11.71875 -13.101562 13.125 -11.78125 C 14.53125 -10.46875 15.234375 -8.820312 15.234375 -6.84375 C 15.234375 -4.851562 14.523438 -3.1875 13.109375 -1.84375 C 11.703125 -0.507812 9.945312 0.15625 7.84375 0.15625 C 5.738281 0.15625 3.984375 -0.507812 2.578125 -1.84375 C 1.171875 -3.175781 0.46875 -4.84375 0.46875 -6.84375 C 0.46875 -8.832031 1.171875 -10.484375 2.578125 -11.796875 C 3.984375 -13.109375 5.738281 -13.765625 7.84375 -13.765625 Z M 7.875 -10.859375 C 6.8125 -10.859375 5.898438 -10.472656 5.140625 -9.703125 C 4.390625 -8.929688 4.015625 -7.972656 4.015625 -6.828125 C 4.015625 -5.679688 4.394531 -4.710938 5.15625 -3.921875 C 5.914062 -3.140625 6.820312 -2.75 7.875 -2.75 C 8.925781 -2.75 9.816406 -3.140625 10.546875 -3.921875 C 11.285156 -4.710938 11.65625 -5.679688 11.65625 -6.828125 C 11.65625 -7.972656 11.285156 -8.929688 10.546875 -9.703125 C 9.816406 -10.472656 8.925781 -10.859375 7.875 -10.859375 Z M 7.875 -10.859375 "/></g></g></g><g fill="#6662f7" fill-opacity="1"><g transform="translate(94.112643, 82.300593)"><g><path d="M 11.578125 -10.515625 L 11.578125 0 L 8.203125 0 L 8.203125 -1.734375 C 7.492188 -0.484375 6.359375 0.140625 4.796875 0.140625 C 3.648438 0.140625 2.734375 -0.222656 2.046875 -0.953125 C 1.367188 -1.679688 1.03125 -2.65625 1.03125 -3.875 L 1.03125 -10.515625 L 4.40625 -10.515625 L 4.40625 -4.84375 C 4.40625 -4.21875 4.5625 -3.722656 4.875 -3.359375 C 5.195312 -3.003906 5.625 -2.828125 6.15625 -2.828125 C 6.800781 -2.835938 7.300781 -3.070312 7.65625 -3.53125 C 8.019531 -4 8.203125 -4.597656 8.203125 -5.328125 L 8.203125 -10.515625 Z M 11.578125 -10.515625 "/></g></g></g><g fill="#6662f7" fill-opacity="1"><g transform="translate(105.925829, 82.300593)"><g><path d="M 7.46875 -2.90625 L 8.125 -0.5625 C 7.3125 -0.0820312 6.378906 0.15625 5.328125 0.15625 C 4.285156 0.15625 3.441406 -0.128906 2.796875 -0.703125 C 2.148438 -1.285156 1.828125 -2.109375 1.828125 -3.171875 L 1.828125 -7.8125 L 0.375 -7.8125 L 0.375 -10.015625 L 1.828125 -10.015625 L 1.828125 -12.953125 L 5.1875 -12.953125 L 5.1875 -10.046875 L 7.9375 -10.046875 L 7.9375 -7.8125 L 5.1875 -7.8125 L 5.1875 -3.703125 C 5.1875 -3.296875 5.265625 -3 5.421875 -2.8125 C 5.585938 -2.625 5.832031 -2.535156 6.15625 -2.546875 C 6.46875 -2.546875 6.90625 -2.664062 7.46875 -2.90625 Z M 7.46875 -2.90625 "/></g></g></g></svg>